<svg width="182" height="71" viewBox="0 0 182 71" fill="none" xmlns="http://www.w3.org/2000/svg">
<rect width="182" height="71" rx="8" fill="#60B7FE"/>
<path d="M78.28 36.7075V38.1875H71.88V36.7075H74.224V29.9635C74.224 29.6968 74.232 29.4222 74.248 29.1395L72.584 30.5315C72.488 30.6062 72.392 30.6542 72.296 30.6755C72.2053 30.6915 72.1173 30.6915 72.032 30.6755C71.952 30.6595 71.88 30.6328 71.816 30.5955C71.752 30.5528 71.704 30.5075 71.672 30.4595L71.048 29.6035L74.576 26.6035H76.2V36.7075H78.28ZM88.1613 32.4035C88.1613 33.4115 88.0519 34.2888 87.8333 35.0355C87.6199 35.7768 87.3213 36.3902 86.9373 36.8755C86.5586 37.3608 86.1079 37.7235 85.5853 37.9635C85.0679 38.1982 84.5079 38.3155 83.9053 38.3155C83.3026 38.3155 82.7426 38.1982 82.2253 37.9635C81.7133 37.7235 81.2679 37.3608 80.8893 36.8755C80.5106 36.3902 80.2146 35.7768 80.0013 35.0355C79.7879 34.2888 79.6813 33.4115 79.6813 32.4035C79.6813 31.3902 79.7879 30.5128 80.0013 29.7715C80.2146 29.0302 80.5106 28.4168 80.8893 27.9315C81.2679 27.4462 81.7133 27.0862 82.2253 26.8515C82.7426 26.6115 83.3026 26.4915 83.9053 26.4915C84.5079 26.4915 85.0679 26.6115 85.5853 26.8515C86.1079 27.0862 86.5586 27.4462 86.9373 27.9315C87.3213 28.4168 87.6199 29.0302 87.8333 29.7715C88.0519 30.5128 88.1613 31.3902 88.1613 32.4035ZM86.1213 32.4035C86.1213 31.5662 86.0599 30.8728 85.9373 30.3235C85.8146 29.7742 85.6493 29.3368 85.4413 29.0115C85.2386 28.6862 85.0039 28.4595 84.7373 28.3315C84.4706 28.1982 84.1933 28.1315 83.9053 28.1315C83.6226 28.1315 83.3479 28.1982 83.0813 28.3315C82.8199 28.4595 82.5879 28.6862 82.3853 29.0115C82.1826 29.3368 82.0199 29.7742 81.8973 30.3235C81.7799 30.8728 81.7213 31.5662 81.7213 32.4035C81.7213 33.2408 81.7799 33.9342 81.8973 34.4835C82.0199 35.0328 82.1826 35.4702 82.3853 35.7955C82.5879 36.1208 82.8199 36.3502 83.0813 36.4835C83.3479 36.6115 83.6226 36.6755 83.9053 36.6755C84.1933 36.6755 84.4706 36.6115 84.7373 36.4835C85.0039 36.3502 85.2386 36.1208 85.4413 35.7955C85.6493 35.4702 85.8146 35.0328 85.9373 34.4835C86.0599 33.9342 86.1213 33.2408 86.1213 32.4035ZM91.8105 30.8195C92.0665 30.7662 92.3118 30.7288 92.5465 30.7075C92.7812 30.6808 93.0078 30.6675 93.2265 30.6675C93.8345 30.6675 94.3705 30.7582 94.8345 30.9395C95.2985 31.1208 95.6878 31.3715 96.0025 31.6915C96.3172 32.0115 96.5545 32.3875 96.7145 32.8195C96.8745 33.2462 96.9545 33.7075 96.9545 34.2035C96.9545 34.8168 96.8452 35.3768 96.6265 35.8835C96.4132 36.3902 96.1145 36.8248 95.7305 37.1875C95.3465 37.5448 94.8905 37.8222 94.3625 38.0195C93.8398 38.2168 93.2692 38.3155 92.6505 38.3155C92.2878 38.3155 91.9438 38.2782 91.6185 38.2035C91.2932 38.1288 90.9865 38.0302 90.6985 37.9075C90.4158 37.7795 90.1518 37.6355 89.9065 37.4755C89.6665 37.3102 89.4505 37.1368 89.2585 36.9555L89.8665 36.1155C89.9945 35.9342 90.1625 35.8435 90.3705 35.8435C90.5038 35.8435 90.6398 35.8862 90.7785 35.9715C90.9172 36.0568 91.0745 36.1502 91.2505 36.2515C91.4318 36.3528 91.6425 36.4462 91.8825 36.5315C92.1278 36.6168 92.4212 36.6595 92.7625 36.6595C93.1252 36.6595 93.4452 36.6008 93.7225 36.4835C93.9998 36.3662 94.2292 36.2035 94.4105 35.9955C94.5972 35.7822 94.7358 35.5315 94.8265 35.2435C94.9225 34.9502 94.9705 34.6328 94.9705 34.2915C94.9705 33.6622 94.7865 33.1715 94.4185 32.8195C94.0558 32.4622 93.5172 32.2835 92.8025 32.2835C92.2532 32.2835 91.6905 32.3848 91.1145 32.5875L89.8825 32.2355L90.8425 26.6195H96.5545V27.4595C96.5545 27.7422 96.4665 27.9715 96.2905 28.1475C96.1145 28.3235 95.8158 28.4115 95.3945 28.4115H92.2185L91.8105 30.8195ZM104.686 26.2995V33.1075H105.054C105.188 33.1075 105.292 33.0915 105.366 33.0595C105.446 33.0222 105.526 32.9502 105.606 32.8435L107.646 30.3235C107.732 30.2115 107.825 30.1262 107.926 30.0675C108.033 30.0088 108.169 29.9795 108.334 29.9795H110.142L107.59 33.0275C107.409 33.2675 107.212 33.4515 106.998 33.5795C107.11 33.6595 107.209 33.7528 107.294 33.8595C107.385 33.9662 107.47 34.0808 107.55 34.2035L110.286 38.1875H108.502C108.348 38.1875 108.214 38.1635 108.102 38.1155C107.99 38.0622 107.897 37.9688 107.822 37.8355L105.726 34.7235C105.652 34.6008 105.574 34.5208 105.494 34.4835C105.414 34.4462 105.294 34.4275 105.134 34.4275H104.686V38.1875H102.71V26.2995H104.686ZM73.128 44.0835V47.9315H77.736V49.3155H73.128V54.1875H71.416V42.6995H78.536V44.0835H73.128ZM82.9038 45.9315C83.5011 45.9315 84.0398 46.0302 84.5198 46.2275C85.0051 46.4195 85.4158 46.6995 85.7518 47.0675C86.0931 47.4302 86.3544 47.8702 86.5358 48.3875C86.7171 48.8995 86.8078 49.4755 86.8078 50.1155C86.8078 50.7555 86.7171 51.3342 86.5358 51.8515C86.3544 52.3688 86.0931 52.8088 85.7518 53.1715C85.4158 53.5342 85.0051 53.8142 84.5198 54.0115C84.0398 54.2035 83.5011 54.2995 82.9038 54.2995C82.3011 54.2995 81.7571 54.2035 81.2718 54.0115C80.7918 53.8142 80.3811 53.5342 80.0398 53.1715C79.6984 52.8088 79.4344 52.3688 79.2478 51.8515C79.0664 51.3342 78.9758 50.7555 78.9758 50.1155C78.9758 49.4755 79.0664 48.8995 79.2478 48.3875C79.4344 47.8702 79.6984 47.4302 80.0398 47.0675C80.3811 46.6995 80.7918 46.4195 81.2718 46.2275C81.7571 46.0302 82.3011 45.9315 82.9038 45.9315ZM82.9038 53.0835C83.6718 53.0835 84.2451 52.8248 84.6238 52.3075C85.0024 51.7902 85.1918 51.0622 85.1918 50.1235C85.1918 49.1848 85.0024 48.4568 84.6238 47.9395C84.2451 47.4168 83.6718 47.1555 82.9038 47.1555C82.1251 47.1555 81.5438 47.4168 81.1598 47.9395C80.7811 48.4568 80.5918 49.1848 80.5918 50.1235C80.5918 51.0622 80.7811 51.7902 81.1598 52.3075C81.5438 52.8248 82.1251 53.0835 82.9038 53.0835ZM90.1491 42.3795V54.1875H88.5811V42.3795H90.1491ZM93.9773 42.3795V54.1875H92.4093V42.3795H93.9773ZM99.6694 45.9315C100.267 45.9315 100.805 46.0302 101.285 46.2275C101.771 46.4195 102.181 46.6995 102.517 47.0675C102.859 47.4302 103.12 47.8702 103.301 48.3875C103.483 48.8995 103.573 49.4755 103.573 50.1155C103.573 50.7555 103.483 51.3342 103.301 51.8515C103.12 52.3688 102.859 52.8088 102.517 53.1715C102.181 53.5342 101.771 53.8142 101.285 54.0115C100.805 54.2035 100.267 54.2995 99.6694 54.2995C99.0667 54.2995 98.5227 54.2035 98.0374 54.0115C97.5574 53.8142 97.1467 53.5342 96.8054 53.1715C96.464 52.8088 96.2 52.3688 96.0134 51.8515C95.832 51.3342 95.7414 50.7555 95.7414 50.1155C95.7414 49.4755 95.832 48.8995 96.0134 48.3875C96.2 47.8702 96.464 47.4302 96.8054 47.0675C97.1467 46.6995 97.5574 46.4195 98.0374 46.2275C98.5227 46.0302 99.0667 45.9315 99.6694 45.9315ZM99.6694 53.0835C100.437 53.0835 101.011 52.8248 101.389 52.3075C101.768 51.7902 101.957 51.0622 101.957 50.1235C101.957 49.1848 101.768 48.4568 101.389 47.9395C101.011 47.4168 100.437 47.1555 99.6694 47.1555C98.8907 47.1555 98.3094 47.4168 97.9254 47.9395C97.5467 48.4568 97.3574 49.1848 97.3574 50.1235C97.3574 51.0622 97.5467 51.7902 97.9254 52.3075C98.3094 52.8248 98.8907 53.0835 99.6694 53.0835ZM116.494 46.0595L113.878 54.1875H112.63C112.48 54.1875 112.379 54.0888 112.326 53.8915L110.614 48.5955C110.571 48.4622 110.534 48.3315 110.502 48.2035C110.47 48.0702 110.44 47.9368 110.414 47.8035C110.366 48.0808 110.299 48.3502 110.214 48.6115L108.478 53.8915C108.424 54.0888 108.31 54.1875 108.134 54.1875H106.95L104.326 46.0595H105.558C105.68 46.0595 105.782 46.0888 105.862 46.1475C105.947 46.2062 106.003 46.2808 106.03 46.3715L107.494 51.3635C107.542 51.5662 107.584 51.7635 107.622 51.9555C107.659 52.1475 107.694 52.3395 107.726 52.5315C107.774 52.3395 107.824 52.1475 107.878 51.9555C107.936 51.7635 107.995 51.5662 108.054 51.3635L109.678 46.3395C109.704 46.2488 109.755 46.1768 109.83 46.1235C109.904 46.0648 109.995 46.0355 110.102 46.0355H110.782C110.899 46.0355 110.995 46.0648 111.07 46.1235C111.15 46.1768 111.203 46.2488 111.23 46.3395L112.814 51.3635C112.872 51.5662 112.928 51.7662 112.982 51.9635C113.035 52.1555 113.083 52.3502 113.126 52.5475C113.158 52.3555 113.195 52.1635 113.238 51.9715C113.28 51.7742 113.328 51.5715 113.382 51.3635L114.87 46.3715C114.896 46.2808 114.95 46.2062 115.03 46.1475C115.115 46.0888 115.211 46.0595 115.318 46.0595H116.494ZM123.074 49.2195C123.074 48.9102 123.028 48.6248 122.938 48.3635C122.852 48.1022 122.724 47.8755 122.554 47.6835C122.383 47.4915 122.175 47.3422 121.93 47.2355C121.684 47.1288 121.402 47.0755 121.082 47.0755C120.426 47.0755 119.908 47.2648 119.53 47.6435C119.156 48.0222 118.919 48.5475 118.818 49.2195H123.074ZM124.362 53.0275C124.17 53.2515 123.948 53.4462 123.698 53.6115C123.447 53.7715 123.18 53.9022 122.898 54.0035C122.615 54.1048 122.322 54.1795 122.018 54.2275C121.719 54.2755 121.423 54.2995 121.13 54.2995C120.57 54.2995 120.05 54.2062 119.57 54.0195C119.095 53.8275 118.682 53.5502 118.33 53.1875C117.983 52.8195 117.711 52.3662 117.514 51.8275C117.322 51.2835 117.226 50.6595 117.226 49.9555C117.226 49.3902 117.314 48.8648 117.49 48.3795C117.666 47.8888 117.916 47.4622 118.242 47.0995C118.572 46.7368 118.975 46.4515 119.45 46.2435C119.924 46.0355 120.458 45.9315 121.05 45.9315C121.546 45.9315 122.002 46.0142 122.418 46.1795C122.839 46.3395 123.202 46.5742 123.506 46.8835C123.81 47.1928 124.047 47.5742 124.218 48.0275C124.394 48.4808 124.482 48.9982 124.482 49.5795C124.482 49.8195 124.455 49.9822 124.402 50.0675C124.348 50.1475 124.25 50.1875 124.106 50.1875H118.778C118.794 50.6728 118.863 51.0968 118.986 51.4595C119.108 51.8168 119.276 52.1155 119.49 52.3555C119.708 52.5955 119.967 52.7742 120.266 52.8915C120.564 53.0088 120.898 53.0675 121.266 53.0675C121.612 53.0675 121.911 53.0275 122.162 52.9475C122.418 52.8675 122.636 52.7822 122.818 52.6915C123.004 52.5955 123.159 52.5075 123.282 52.4275C123.41 52.3475 123.522 52.3075 123.618 52.3075C123.746 52.3075 123.844 52.3555 123.914 52.4515L124.362 53.0275ZM127.631 47.6195C127.892 47.0862 128.207 46.6675 128.575 46.3635C128.943 46.0595 129.385 45.9075 129.903 45.9075C130.079 45.9075 130.244 45.9288 130.399 45.9715C130.559 46.0088 130.697 46.0675 130.815 46.1475L130.711 47.3235C130.673 47.4675 130.585 47.5395 130.447 47.5395C130.372 47.5395 130.26 47.5262 130.111 47.4995C129.961 47.4675 129.801 47.4515 129.631 47.4515C129.38 47.4515 129.159 47.4888 128.967 47.5635C128.775 47.6328 128.601 47.7395 128.447 47.8835C128.297 48.0222 128.164 48.1955 128.047 48.4035C127.929 48.6062 127.82 48.8382 127.719 49.0995V54.1875H126.159V46.0595H127.055C127.225 46.0595 127.34 46.0915 127.399 46.1555C127.463 46.2142 127.508 46.3208 127.535 46.4755L127.631 47.6195ZM136.763 47.4595C136.72 47.5288 136.675 47.5795 136.627 47.6115C136.579 47.6382 136.518 47.6515 136.443 47.6515C136.358 47.6515 136.262 47.6222 136.155 47.5635C136.054 47.5048 135.928 47.4408 135.779 47.3715C135.635 47.3022 135.464 47.2382 135.267 47.1795C135.07 47.1208 134.835 47.0915 134.563 47.0915C134.339 47.0915 134.134 47.1208 133.947 47.1795C133.766 47.2328 133.611 47.3102 133.483 47.4115C133.355 47.5075 133.256 47.6248 133.187 47.7635C133.118 47.8968 133.083 48.0408 133.083 48.1955C133.083 48.3982 133.142 48.5662 133.259 48.6995C133.382 48.8328 133.539 48.9475 133.731 49.0435C133.928 49.1395 134.15 49.2275 134.395 49.3075C134.646 49.3822 134.899 49.4622 135.155 49.5475C135.416 49.6328 135.67 49.7315 135.915 49.8435C136.166 49.9502 136.387 50.0862 136.579 50.2515C136.776 50.4115 136.934 50.6062 137.051 50.8355C137.174 51.0648 137.235 51.3448 137.235 51.6755C137.235 52.0542 137.166 52.4062 137.027 52.7315C136.894 53.0515 136.694 53.3288 136.427 53.5635C136.166 53.7982 135.84 53.9822 135.451 54.1155C135.062 54.2488 134.616 54.3155 134.115 54.3155C133.555 54.3155 133.038 54.2222 132.563 54.0355C132.088 53.8488 131.691 53.6115 131.371 53.3235L131.739 52.7235C131.782 52.6488 131.835 52.5928 131.899 52.5555C131.963 52.5128 132.048 52.4915 132.155 52.4915C132.256 52.4915 132.36 52.5288 132.467 52.6035C132.574 52.6782 132.702 52.7608 132.851 52.8515C133 52.9368 133.182 53.0168 133.395 53.0915C133.608 53.1608 133.875 53.1955 134.195 53.1955C134.462 53.1955 134.694 53.1635 134.891 53.0995C135.088 53.0302 135.251 52.9395 135.379 52.8275C135.512 52.7102 135.611 52.5768 135.675 52.4275C135.739 52.2782 135.771 52.1208 135.771 51.9555C135.771 51.7422 135.71 51.5662 135.587 51.4275C135.47 51.2835 135.312 51.1608 135.115 51.0595C134.923 50.9582 134.702 50.8702 134.451 50.7955C134.2 50.7208 133.944 50.6408 133.683 50.5555C133.422 50.4702 133.166 50.3715 132.915 50.2595C132.664 50.1475 132.44 50.0062 132.243 49.8355C132.051 49.6648 131.894 49.4568 131.771 49.2115C131.654 48.9662 131.595 48.6675 131.595 48.3155C131.595 48.0008 131.659 47.6995 131.787 47.4115C131.92 47.1235 132.11 46.8702 132.355 46.6515C132.606 46.4328 132.912 46.2595 133.275 46.1315C133.643 45.9982 134.062 45.9315 134.531 45.9315C135.07 45.9315 135.555 46.0168 135.987 46.1875C136.424 46.3582 136.798 46.5928 137.107 46.8915L136.763 47.4595Z" fill="white"/>
<path d="M48.5239 28.5827C47.4106 29.076 46.2146 29.4094 44.9573 29.56C46.2546 28.7837 47.2252 27.562 47.6879 26.1227C46.4691 26.8467 45.1351 27.3563 43.7439 27.6294C42.8084 26.6305 41.5693 25.9685 40.219 25.746C38.8687 25.5235 37.4827 25.7531 36.2763 26.399C35.0698 27.045 34.1103 28.0712 33.5468 29.3183C32.9833 30.5654 32.8473 31.9637 33.1599 33.296C30.6902 33.172 28.2741 32.5301 26.0685 31.4119C23.8629 30.2937 21.9171 28.7242 20.3573 26.8054C19.8239 27.7254 19.5173 28.792 19.5173 29.928C19.5167 30.9507 19.7685 31.9577 20.2504 32.8597C20.7324 33.7617 21.4295 34.5307 22.2799 35.0987C21.2936 35.0673 20.3291 34.8008 19.4666 34.3214V34.4014C19.4665 35.8357 19.9626 37.2259 20.8708 38.336C21.779 39.4462 23.0434 40.2079 24.4493 40.492C23.5343 40.7396 22.5751 40.7761 21.6439 40.5987C22.0406 41.8328 22.8133 42.9121 23.8538 43.6853C24.8943 44.4585 26.1505 44.8869 27.4466 44.9107C25.2464 46.6379 22.5291 47.5748 19.7319 47.5707C19.2364 47.5708 18.7414 47.5419 18.2493 47.484C21.0886 49.3096 24.3937 50.2785 27.7693 50.2747C39.1959 50.2747 45.4426 40.8107 45.4426 32.6027C45.4426 32.336 45.4359 32.0667 45.4239 31.8C46.639 30.9213 47.6878 29.8332 48.5213 28.5867L48.5239 28.5827Z" fill="white"/>
</svg>
