<svg width="182" height="71" viewBox="0 0 182 71" fill="none" xmlns="http://www.w3.org/2000/svg">
<rect width="182" height="71" rx="8" fill="#E14D93"/>
<path fill-rule="evenodd" clip-rule="evenodd" d="M24.9533 22.4213C26.5173 22.3493 27.0159 22.3333 30.9999 22.3333C34.9839 22.3333 35.4826 22.3507 37.0453 22.4213C38.6079 22.492 39.6746 22.7413 40.6079 23.1027C41.5852 23.472 42.4719 24.0493 43.2052 24.796C43.9519 25.528 44.5279 26.4133 44.8959 27.392C45.2586 28.3253 45.5066 29.392 45.5786 30.952C45.6506 32.5187 45.6666 33.0173 45.6666 37C45.6666 40.984 45.6493 41.4827 45.5786 43.0467C45.5079 44.6067 45.2586 45.6733 44.8959 46.6067C44.5279 47.5855 43.951 48.4723 43.2052 49.2053C42.4719 49.952 41.5852 50.528 40.6079 50.896C39.6746 51.2587 38.6079 51.5067 37.0479 51.5787C35.4826 51.6507 34.9839 51.6667 30.9999 51.6667C27.0159 51.6667 26.5173 51.6493 24.9533 51.5787C23.3933 51.508 22.3266 51.2587 21.3933 50.896C20.4145 50.528 19.5277 49.951 18.7946 49.2053C18.0484 48.4729 17.471 47.5865 17.1026 46.608C16.7413 45.6747 16.4933 44.608 16.4213 43.048C16.3493 41.4813 16.3333 40.9827 16.3333 37C16.3333 33.016 16.3506 32.5173 16.4213 30.9547C16.4919 29.392 16.7413 28.3253 17.1026 27.392C17.4715 26.4135 18.0494 25.5271 18.7959 24.7947C19.528 24.0487 20.4139 23.4713 21.3919 23.1027C22.3253 22.7413 23.3919 22.4933 24.9519 22.4213H24.9533ZM36.9266 25.0613C35.3799 24.9907 34.9159 24.976 30.9999 24.976C27.0839 24.976 26.6199 24.9907 25.0733 25.0613C23.6426 25.1267 22.8666 25.3653 22.3493 25.5667C21.6653 25.8333 21.1759 26.1493 20.6626 26.6627C20.176 27.1361 19.8015 27.7124 19.5666 28.3493C19.3653 28.8667 19.1266 29.6427 19.0613 31.0733C18.9906 32.62 18.9759 33.084 18.9759 37C18.9759 40.916 18.9906 41.38 19.0613 42.9267C19.1266 44.3573 19.3653 45.1333 19.5666 45.6507C19.8013 46.2867 20.1759 46.864 20.6626 47.3373C21.1359 47.824 21.7133 48.1987 22.3493 48.4333C22.8666 48.6347 23.6426 48.8733 25.0733 48.9387C26.6199 49.0093 27.0826 49.024 30.9999 49.024C34.9173 49.024 35.3799 49.0093 36.9266 48.9387C38.3573 48.8733 39.1333 48.6347 39.6506 48.4333C40.3346 48.1667 40.8239 47.8507 41.3373 47.3373C41.8239 46.864 42.1986 46.2867 42.4333 45.6507C42.6346 45.1333 42.8733 44.3573 42.9386 42.9267C43.0093 41.38 43.0239 40.916 43.0239 37C43.0239 33.084 43.0093 32.62 42.9386 31.0733C42.8733 29.6427 42.6346 28.8667 42.4333 28.3493C42.1666 27.6653 41.8506 27.176 41.3373 26.6627C40.8638 26.1761 40.2875 25.8016 39.6506 25.5667C39.1333 25.3653 38.3573 25.1267 36.9266 25.0613ZM29.1266 41.5213C30.1728 41.9569 31.3378 42.0156 32.4225 41.6876C33.5072 41.3596 34.4444 40.6652 35.0741 39.723C35.7037 38.7808 35.9867 37.6492 35.8746 36.5215C35.7626 35.3938 35.2626 34.34 34.4599 33.54C33.9482 33.0286 33.3295 32.6371 32.6484 32.3935C31.9672 32.15 31.2405 32.0605 30.5206 32.1315C29.8007 32.2025 29.1055 32.4322 28.485 32.8042C27.8645 33.1761 27.3342 33.681 26.9323 34.2825C26.5304 34.884 26.2668 35.5671 26.1606 36.2826C26.0544 36.9982 26.1081 37.7284 26.318 38.4207C26.5278 39.113 26.8886 39.7502 27.3742 40.2863C27.8599 40.8225 28.4584 41.2443 29.1266 41.5213ZM25.6693 31.6693C26.3693 30.9693 27.2003 30.414 28.115 30.0352C29.0296 29.6563 30.0099 29.4613 30.9999 29.4613C31.9899 29.4613 32.9702 29.6563 33.8849 30.0352C34.7995 30.414 35.6306 30.9693 36.3306 31.6693C37.0306 32.3694 37.5859 33.2004 37.9648 34.1151C38.3436 35.0297 38.5386 36.01 38.5386 37C38.5386 37.99 38.3436 38.9703 37.9648 39.8849C37.5859 40.7996 37.0306 41.6306 36.3306 42.3307C34.9168 43.7445 32.9993 44.5387 30.9999 44.5387C29.0005 44.5387 27.083 43.7445 25.6693 42.3307C24.2555 40.9169 23.4612 38.9994 23.4612 37C23.4612 35.0006 24.2555 33.0831 25.6693 31.6693ZM40.2106 30.584C40.3841 30.4204 40.5229 30.2236 40.619 30.0053C40.715 29.787 40.7663 29.5517 40.7698 29.3132C40.7733 29.0748 40.7289 28.8381 40.6392 28.6171C40.5496 28.3961 40.4165 28.1954 40.2479 28.0267C40.0792 27.8581 39.8785 27.725 39.6575 27.6354C39.4365 27.5457 39.1998 27.5013 38.9613 27.5048C38.7229 27.5083 38.4876 27.5595 38.2693 27.6556C38.051 27.7517 37.8542 27.8905 37.6906 28.064C37.3723 28.4014 37.1981 28.8495 37.2049 29.3132C37.2116 29.777 37.3988 30.2198 37.7268 30.5478C38.0547 30.8758 38.4976 31.063 38.9613 31.0697C39.4251 31.0765 39.8732 30.9023 40.2106 30.584Z" fill="white"/>
<path d="M74.64 33.584C74.9653 33.584 75.2507 33.5387 75.496 33.448C75.7413 33.352 75.9467 33.2213 76.112 33.056C76.2827 32.8907 76.4107 32.6933 76.496 32.464C76.5813 32.2347 76.624 31.9867 76.624 31.72C76.624 31.0853 76.448 30.6053 76.096 30.28C75.744 29.9547 75.2587 29.792 74.64 29.792C74.0213 29.792 73.536 29.9547 73.184 30.28C72.832 30.6053 72.656 31.0853 72.656 31.72C72.656 31.9867 72.6987 32.2347 72.784 32.464C72.8693 32.6933 72.9947 32.8907 73.16 33.056C73.3307 33.2213 73.5387 33.352 73.784 33.448C74.0293 33.5387 74.3147 33.584 74.64 33.584ZM74.64 24.792C74.3467 24.792 74.0933 24.8373 73.88 24.928C73.6667 25.0187 73.488 25.1413 73.344 25.296C73.2053 25.4453 73.1013 25.6187 73.032 25.816C72.968 26.0133 72.936 26.2213 72.936 26.44C72.936 26.6693 72.9627 26.8933 73.016 27.112C73.0747 27.3253 73.1707 27.5173 73.304 27.688C73.4373 27.8533 73.6133 27.9867 73.832 28.088C74.0507 28.1893 74.32 28.24 74.64 28.24C74.96 28.24 75.2293 28.1893 75.448 28.088C75.6667 27.9867 75.8427 27.8533 75.976 27.688C76.1093 27.5173 76.2027 27.3253 76.256 27.112C76.3147 26.8933 76.344 26.6693 76.344 26.44C76.344 26.2213 76.3093 26.0133 76.24 25.816C76.1707 25.6187 76.0667 25.4453 75.928 25.296C75.7893 25.1413 75.6133 25.0187 75.4 24.928C75.1867 24.8373 74.9333 24.792 74.64 24.792ZM76.592 28.968C77.296 29.1973 77.816 29.5493 78.152 30.024C78.488 30.4933 78.656 31.0693 78.656 31.752C78.656 32.264 78.5573 32.728 78.36 33.144C78.168 33.56 77.896 33.9147 77.544 34.208C77.192 34.5013 76.768 34.728 76.272 34.888C75.7813 35.048 75.2373 35.128 74.64 35.128C74.0427 35.128 73.496 35.048 73 34.888C72.5093 34.728 72.088 34.5013 71.736 34.208C71.384 33.9147 71.1093 33.56 70.912 33.144C70.72 32.728 70.624 32.264 70.624 31.752C70.624 31.0693 70.792 30.4933 71.128 30.024C71.464 29.5493 71.984 29.1973 72.688 28.968C72.128 28.7333 71.7067 28.4 71.424 27.968C71.1467 27.536 71.008 27.016 71.008 26.408C71.008 25.9707 71.096 25.5627 71.272 25.184C71.4533 24.8053 71.704 24.4773 72.024 24.2C72.344 23.9173 72.7253 23.6987 73.168 23.544C73.616 23.384 74.1067 23.304 74.64 23.304C75.1733 23.304 75.6613 23.384 76.104 23.544C76.552 23.6987 76.936 23.9173 77.256 24.2C77.576 24.4773 77.824 24.8053 78 25.184C78.1813 25.5627 78.272 25.9707 78.272 26.408C78.272 27.016 78.1307 27.536 77.848 27.968C77.5707 28.4 77.152 28.7333 76.592 28.968ZM82.5293 27.632C82.7853 27.5787 83.0306 27.5413 83.2653 27.52C83.4999 27.4933 83.7266 27.48 83.9453 27.48C84.5533 27.48 85.0893 27.5707 85.5533 27.752C86.0173 27.9333 86.4066 28.184 86.7213 28.504C87.0359 28.824 87.2733 29.2 87.4333 29.632C87.5933 30.0587 87.6733 30.52 87.6733 31.016C87.6733 31.6293 87.5639 32.1893 87.3453 32.696C87.1319 33.2027 86.8333 33.6373 86.4493 34C86.0653 34.3573 85.6093 34.6347 85.0813 34.832C84.5586 35.0293 83.9879 35.128 83.3693 35.128C83.0066 35.128 82.6626 35.0907 82.3373 35.016C82.0119 34.9413 81.7053 34.8427 81.4173 34.72C81.1346 34.592 80.8706 34.448 80.6253 34.288C80.3853 34.1227 80.1693 33.9493 79.9773 33.768L80.5853 32.928C80.7133 32.7467 80.8813 32.656 81.0893 32.656C81.2226 32.656 81.3586 32.6987 81.4973 32.784C81.6359 32.8693 81.7933 32.9627 81.9693 33.064C82.1506 33.1653 82.3613 33.2587 82.6013 33.344C82.8466 33.4293 83.1399 33.472 83.4813 33.472C83.8439 33.472 84.1639 33.4133 84.4413 33.296C84.7186 33.1787 84.9479 33.016 85.1293 32.808C85.3159 32.5947 85.4546 32.344 85.5453 32.056C85.6413 31.7627 85.6893 31.4453 85.6893 31.104C85.6893 30.4747 85.5053 29.984 85.1373 29.632C84.7746 29.2747 84.2359 29.096 83.5213 29.096C82.9719 29.096 82.4093 29.1973 81.8333 29.4L80.6013 29.048L81.5613 23.432H87.2733V24.272C87.2733 24.5547 87.1853 24.784 87.0093 24.96C86.8333 25.136 86.5346 25.224 86.1133 25.224H82.9373L82.5293 27.632ZM95.4051 23.112V29.92H95.7731C95.9065 29.92 96.0105 29.904 96.0851 29.872C96.1651 29.8347 96.2451 29.7627 96.3251 29.656L98.3651 27.136C98.4505 27.024 98.5438 26.9387 98.6451 26.88C98.7518 26.8213 98.8878 26.792 99.0531 26.792H100.861L98.3091 29.84C98.1278 30.08 97.9305 30.264 97.7171 30.392C97.8291 30.472 97.9278 30.5653 98.0131 30.672C98.1038 30.7787 98.1891 30.8933 98.2691 31.016L101.005 35H99.2211C99.0665 35 98.9331 34.976 98.8211 34.928C98.7091 34.8747 98.6158 34.7813 98.5411 34.648L96.4451 31.536C96.3705 31.4133 96.2931 31.3333 96.2131 31.296C96.1331 31.2587 96.0131 31.24 95.8531 31.24H95.4051V35H93.4291V23.112H95.4051ZM73.128 40.896V44.744H77.736V46.128H73.128V51H71.416V39.512H78.536V40.896H73.128ZM82.9038 42.744C83.5011 42.744 84.0398 42.8427 84.5198 43.04C85.0051 43.232 85.4158 43.512 85.7518 43.88C86.0931 44.2427 86.3544 44.6827 86.5358 45.2C86.7171 45.712 86.8078 46.288 86.8078 46.928C86.8078 47.568 86.7171 48.1467 86.5358 48.664C86.3544 49.1813 86.0931 49.6213 85.7518 49.984C85.4158 50.3467 85.0051 50.6267 84.5198 50.824C84.0398 51.016 83.5011 51.112 82.9038 51.112C82.3011 51.112 81.7571 51.016 81.2718 50.824C80.7918 50.6267 80.3811 50.3467 80.0398 49.984C79.6984 49.6213 79.4344 49.1813 79.2478 48.664C79.0664 48.1467 78.9758 47.568 78.9758 46.928C78.9758 46.288 79.0664 45.712 79.2478 45.2C79.4344 44.6827 79.6984 44.2427 80.0398 43.88C80.3811 43.512 80.7918 43.232 81.2718 43.04C81.7571 42.8427 82.3011 42.744 82.9038 42.744ZM82.9038 49.896C83.6718 49.896 84.2451 49.6373 84.6238 49.12C85.0024 48.6027 85.1918 47.8747 85.1918 46.936C85.1918 45.9973 85.0024 45.2693 84.6238 44.752C84.2451 44.2293 83.6718 43.968 82.9038 43.968C82.1251 43.968 81.5438 44.2293 81.1598 44.752C80.7811 45.2693 80.5918 45.9973 80.5918 46.936C80.5918 47.8747 80.7811 48.6027 81.1598 49.12C81.5438 49.6373 82.1251 49.896 82.9038 49.896ZM90.1491 39.192V51H88.5811V39.192H90.1491ZM93.9773 39.192V51H92.4093V39.192H93.9773ZM99.6694 42.744C100.267 42.744 100.805 42.8427 101.285 43.04C101.771 43.232 102.181 43.512 102.517 43.88C102.859 44.2427 103.12 44.6827 103.301 45.2C103.483 45.712 103.573 46.288 103.573 46.928C103.573 47.568 103.483 48.1467 103.301 48.664C103.12 49.1813 102.859 49.6213 102.517 49.984C102.181 50.3467 101.771 50.6267 101.285 50.824C100.805 51.016 100.267 51.112 99.6694 51.112C99.0667 51.112 98.5227 51.016 98.0374 50.824C97.5574 50.6267 97.1467 50.3467 96.8054 49.984C96.464 49.6213 96.2 49.1813 96.0134 48.664C95.832 48.1467 95.7414 47.568 95.7414 46.928C95.7414 46.288 95.832 45.712 96.0134 45.2C96.2 44.6827 96.464 44.2427 96.8054 43.88C97.1467 43.512 97.5574 43.232 98.0374 43.04C98.5227 42.8427 99.0667 42.744 99.6694 42.744ZM99.6694 49.896C100.437 49.896 101.011 49.6373 101.389 49.12C101.768 48.6027 101.957 47.8747 101.957 46.936C101.957 45.9973 101.768 45.2693 101.389 44.752C101.011 44.2293 100.437 43.968 99.6694 43.968C98.8907 43.968 98.3094 44.2293 97.9254 44.752C97.5467 45.2693 97.3574 45.9973 97.3574 46.936C97.3574 47.8747 97.5467 48.6027 97.9254 49.12C98.3094 49.6373 98.8907 49.896 99.6694 49.896ZM116.494 42.872L113.878 51H112.63C112.48 51 112.379 50.9013 112.326 50.704L110.614 45.408C110.571 45.2747 110.534 45.144 110.502 45.016C110.47 44.8827 110.44 44.7493 110.414 44.616C110.366 44.8933 110.299 45.1627 110.214 45.424L108.478 50.704C108.424 50.9013 108.31 51 108.134 51H106.95L104.326 42.872H105.558C105.68 42.872 105.782 42.9013 105.862 42.96C105.947 43.0187 106.003 43.0933 106.03 43.184L107.494 48.176C107.542 48.3787 107.584 48.576 107.622 48.768C107.659 48.96 107.694 49.152 107.726 49.344C107.774 49.152 107.824 48.96 107.878 48.768C107.936 48.576 107.995 48.3787 108.054 48.176L109.678 43.152C109.704 43.0613 109.755 42.9893 109.83 42.936C109.904 42.8773 109.995 42.848 110.102 42.848H110.782C110.899 42.848 110.995 42.8773 111.07 42.936C111.15 42.9893 111.203 43.0613 111.23 43.152L112.814 48.176C112.872 48.3787 112.928 48.5787 112.982 48.776C113.035 48.968 113.083 49.1627 113.126 49.36C113.158 49.168 113.195 48.976 113.238 48.784C113.28 48.5867 113.328 48.384 113.382 48.176L114.87 43.184C114.896 43.0933 114.95 43.0187 115.03 42.96C115.115 42.9013 115.211 42.872 115.318 42.872H116.494ZM123.074 46.032C123.074 45.7227 123.028 45.4373 122.938 45.176C122.852 44.9147 122.724 44.688 122.554 44.496C122.383 44.304 122.175 44.1547 121.93 44.048C121.684 43.9413 121.402 43.888 121.082 43.888C120.426 43.888 119.908 44.0773 119.53 44.456C119.156 44.8347 118.919 45.36 118.818 46.032H123.074ZM124.362 49.84C124.17 50.064 123.948 50.2587 123.698 50.424C123.447 50.584 123.18 50.7147 122.898 50.816C122.615 50.9173 122.322 50.992 122.018 51.04C121.719 51.088 121.423 51.112 121.13 51.112C120.57 51.112 120.05 51.0187 119.57 50.832C119.095 50.64 118.682 50.3627 118.33 50C117.983 49.632 117.711 49.1787 117.514 48.64C117.322 48.096 117.226 47.472 117.226 46.768C117.226 46.2027 117.314 45.6773 117.49 45.192C117.666 44.7013 117.916 44.2747 118.242 43.912C118.572 43.5493 118.975 43.264 119.45 43.056C119.924 42.848 120.458 42.744 121.05 42.744C121.546 42.744 122.002 42.8267 122.418 42.992C122.839 43.152 123.202 43.3867 123.506 43.696C123.81 44.0053 124.047 44.3867 124.218 44.84C124.394 45.2933 124.482 45.8107 124.482 46.392C124.482 46.632 124.455 46.7947 124.402 46.88C124.348 46.96 124.25 47 124.106 47H118.778C118.794 47.4853 118.863 47.9093 118.986 48.272C119.108 48.6293 119.276 48.928 119.49 49.168C119.708 49.408 119.967 49.5867 120.266 49.704C120.564 49.8213 120.898 49.88 121.266 49.88C121.612 49.88 121.911 49.84 122.162 49.76C122.418 49.68 122.636 49.5947 122.818 49.504C123.004 49.408 123.159 49.32 123.282 49.24C123.41 49.16 123.522 49.12 123.618 49.12C123.746 49.12 123.844 49.168 123.914 49.264L124.362 49.84ZM127.631 44.432C127.892 43.8987 128.207 43.48 128.575 43.176C128.943 42.872 129.385 42.72 129.903 42.72C130.079 42.72 130.244 42.7413 130.399 42.784C130.559 42.8213 130.697 42.88 130.815 42.96L130.711 44.136C130.673 44.28 130.585 44.352 130.447 44.352C130.372 44.352 130.26 44.3387 130.111 44.312C129.961 44.28 129.801 44.264 129.631 44.264C129.38 44.264 129.159 44.3013 128.967 44.376C128.775 44.4453 128.601 44.552 128.447 44.696C128.297 44.8347 128.164 45.008 128.047 45.216C127.929 45.4187 127.82 45.6507 127.719 45.912V51H126.159V42.872H127.055C127.225 42.872 127.34 42.904 127.399 42.968C127.463 43.0267 127.508 43.1333 127.535 43.288L127.631 44.432ZM136.763 44.272C136.72 44.3413 136.675 44.392 136.627 44.424C136.579 44.4507 136.518 44.464 136.443 44.464C136.358 44.464 136.262 44.4347 136.155 44.376C136.054 44.3173 135.928 44.2533 135.779 44.184C135.635 44.1147 135.464 44.0507 135.267 43.992C135.07 43.9333 134.835 43.904 134.563 43.904C134.339 43.904 134.134 43.9333 133.947 43.992C133.766 44.0453 133.611 44.1227 133.483 44.224C133.355 44.32 133.256 44.4373 133.187 44.576C133.118 44.7093 133.083 44.8533 133.083 45.008C133.083 45.2107 133.142 45.3787 133.259 45.512C133.382 45.6453 133.539 45.76 133.731 45.856C133.928 45.952 134.15 46.04 134.395 46.12C134.646 46.1947 134.899 46.2747 135.155 46.36C135.416 46.4453 135.67 46.544 135.915 46.656C136.166 46.7627 136.387 46.8987 136.579 47.064C136.776 47.224 136.934 47.4187 137.051 47.648C137.174 47.8773 137.235 48.1573 137.235 48.488C137.235 48.8667 137.166 49.2187 137.027 49.544C136.894 49.864 136.694 50.1413 136.427 50.376C136.166 50.6107 135.84 50.7947 135.451 50.928C135.062 51.0613 134.616 51.128 134.115 51.128C133.555 51.128 133.038 51.0347 132.563 50.848C132.088 50.6613 131.691 50.424 131.371 50.136L131.739 49.536C131.782 49.4613 131.835 49.4053 131.899 49.368C131.963 49.3253 132.048 49.304 132.155 49.304C132.256 49.304 132.36 49.3413 132.467 49.416C132.574 49.4907 132.702 49.5733 132.851 49.664C133 49.7493 133.182 49.8293 133.395 49.904C133.608 49.9733 133.875 50.008 134.195 50.008C134.462 50.008 134.694 49.976 134.891 49.912C135.088 49.8427 135.251 49.752 135.379 49.64C135.512 49.5227 135.611 49.3893 135.675 49.24C135.739 49.0907 135.771 48.9333 135.771 48.768C135.771 48.5547 135.71 48.3787 135.587 48.24C135.47 48.096 135.312 47.9733 135.115 47.872C134.923 47.7707 134.702 47.6827 134.451 47.608C134.2 47.5333 133.944 47.4533 133.683 47.368C133.422 47.2827 133.166 47.184 132.915 47.072C132.664 46.96 132.44 46.8187 132.243 46.648C132.051 46.4773 131.894 46.2693 131.771 46.024C131.654 45.7787 131.595 45.48 131.595 45.128C131.595 44.8133 131.659 44.512 131.787 44.224C131.92 43.936 132.11 43.6827 132.355 43.464C132.606 43.2453 132.912 43.072 133.275 42.944C133.643 42.8107 134.062 42.744 134.531 42.744C135.07 42.744 135.555 42.8293 135.987 43C136.424 43.1707 136.798 43.4053 137.107 43.704L136.763 44.272Z" fill="white"/>
</svg>
