<svg width="182" height="71" viewBox="0 0 182 71" fill="none" xmlns="http://www.w3.org/2000/svg">
<rect width="182" height="71" rx="8" fill="#4056AC"/>
<path d="M80.176 28.632L79.776 29.128C80 29.016 80.24 28.9307 80.496 28.872C80.7573 28.808 81.0373 28.776 81.336 28.776C81.7733 28.776 82.1973 28.848 82.608 28.992C83.024 29.136 83.3893 29.3547 83.704 29.648C84.0187 29.936 84.272 30.296 84.464 30.728C84.656 31.16 84.752 31.664 84.752 32.24C84.752 32.7787 84.6533 33.2853 84.456 33.76C84.2587 34.2293 83.9813 34.64 83.624 34.992C83.2667 35.344 82.8347 35.6213 82.328 35.824C81.8267 36.0267 81.272 36.128 80.664 36.128C80.0453 36.128 79.4907 36.0293 79 35.832C78.5093 35.6347 78.0907 35.36 77.744 35.008C77.3973 34.6507 77.1307 34.224 76.944 33.728C76.7627 33.2267 76.672 32.672 76.672 32.064C76.672 31.52 76.7813 30.9627 77 30.392C77.224 29.816 77.568 29.2187 78.032 28.6L80.792 24.896C80.888 24.768 81.0267 24.6587 81.208 24.568C81.3947 24.4773 81.608 24.432 81.848 24.432H83.608L80.176 28.632ZM80.624 34.512C80.9387 34.512 81.2267 34.4587 81.488 34.352C81.7547 34.2453 81.9813 34.096 82.168 33.904C82.36 33.712 82.5093 33.488 82.616 33.232C82.7227 32.9707 82.776 32.688 82.776 32.384C82.776 32.0533 82.7253 31.7573 82.624 31.496C82.5227 31.2293 82.3787 31.0053 82.192 30.824C82.0053 30.6373 81.7813 30.496 81.52 30.4C81.2587 30.304 80.9707 30.256 80.656 30.256C80.3413 30.256 80.056 30.3093 79.8 30.416C79.544 30.5227 79.3253 30.672 79.144 30.864C78.9627 31.0507 78.8213 31.2747 78.72 31.536C78.6187 31.792 78.568 32.0693 78.568 32.368C78.568 32.688 78.6107 32.9813 78.696 33.248C78.7867 33.5093 78.9173 33.7333 79.088 33.92C79.264 34.1067 79.48 34.2533 79.736 34.36C79.992 34.4613 80.288 34.512 80.624 34.512ZM88.5293 28.632C88.7853 28.5787 89.0306 28.5413 89.2653 28.52C89.4999 28.4933 89.7266 28.48 89.9453 28.48C90.5533 28.48 91.0893 28.5707 91.5533 28.752C92.0173 28.9333 92.4066 29.184 92.7213 29.504C93.0359 29.824 93.2733 30.2 93.4333 30.632C93.5933 31.0587 93.6733 31.52 93.6733 32.016C93.6733 32.6293 93.5639 33.1893 93.3453 33.696C93.1319 34.2027 92.8333 34.6373 92.4493 35C92.0653 35.3573 91.6093 35.6347 91.0813 35.832C90.5586 36.0293 89.9879 36.128 89.3693 36.128C89.0066 36.128 88.6626 36.0907 88.3373 36.016C88.0119 35.9413 87.7053 35.8427 87.4173 35.72C87.1346 35.592 86.8706 35.448 86.6253 35.288C86.3853 35.1227 86.1693 34.9493 85.9773 34.768L86.5853 33.928C86.7133 33.7467 86.8813 33.656 87.0893 33.656C87.2226 33.656 87.3586 33.6987 87.4973 33.784C87.6359 33.8693 87.7933 33.9627 87.9693 34.064C88.1506 34.1653 88.3613 34.2587 88.6013 34.344C88.8466 34.4293 89.1399 34.472 89.4813 34.472C89.8439 34.472 90.1639 34.4133 90.4413 34.296C90.7186 34.1787 90.9479 34.016 91.1293 33.808C91.3159 33.5947 91.4546 33.344 91.5453 33.056C91.6413 32.7627 91.6893 32.4453 91.6893 32.104C91.6893 31.4747 91.5053 30.984 91.1373 30.632C90.7746 30.2747 90.2359 30.096 89.5213 30.096C88.9719 30.096 88.4093 30.1973 87.8333 30.4L86.6013 30.048L87.5613 24.432H93.2733V25.272C93.2733 25.5547 93.1853 25.784 93.0093 25.96C92.8333 26.136 92.5346 26.224 92.1133 26.224H88.9373L88.5293 28.632ZM95.2505 34.912C95.2505 34.7467 95.2798 34.5893 95.3385 34.44C95.4025 34.2907 95.4878 34.1627 95.5945 34.056C95.7012 33.9493 95.8292 33.864 95.9785 33.8C96.1278 33.736 96.2878 33.704 96.4585 33.704C96.6292 33.704 96.7865 33.736 96.9305 33.8C97.0798 33.864 97.2078 33.9493 97.3145 34.056C97.4265 34.1627 97.5145 34.2907 97.5785 34.44C97.6425 34.5893 97.6745 34.7467 97.6745 34.912C97.6745 35.0827 97.6425 35.2427 97.5785 35.392C97.5145 35.536 97.4265 35.6613 97.3145 35.768C97.2078 35.8747 97.0798 35.9573 96.9305 36.016C96.7865 36.08 96.6292 36.112 96.4585 36.112C96.2878 36.112 96.1278 36.08 95.9785 36.016C95.8292 35.9573 95.7012 35.8747 95.5945 35.768C95.4878 35.6613 95.4025 35.536 95.3385 35.392C95.2798 35.2427 95.2505 35.0827 95.2505 34.912ZM101.607 28.632C101.863 28.5787 102.109 28.5413 102.343 28.52C102.578 28.4933 102.805 28.48 103.023 28.48C103.631 28.48 104.167 28.5707 104.631 28.752C105.095 28.9333 105.485 29.184 105.799 29.504C106.114 29.824 106.351 30.2 106.511 30.632C106.671 31.0587 106.751 31.52 106.751 32.016C106.751 32.6293 106.642 33.1893 106.423 33.696C106.21 34.2027 105.911 34.6373 105.527 35C105.143 35.3573 104.687 35.6347 104.159 35.832C103.637 36.0293 103.066 36.128 102.447 36.128C102.085 36.128 101.741 36.0907 101.415 36.016C101.09 35.9413 100.783 35.8427 100.495 35.72C100.213 35.592 99.9487 35.448 99.7034 35.288C99.4634 35.1227 99.2474 34.9493 99.0554 34.768L99.6634 33.928C99.7914 33.7467 99.9594 33.656 100.167 33.656C100.301 33.656 100.437 33.6987 100.575 33.784C100.714 33.8693 100.871 33.9627 101.047 34.064C101.229 34.1653 101.439 34.2587 101.679 34.344C101.925 34.4293 102.218 34.472 102.559 34.472C102.922 34.472 103.242 34.4133 103.519 34.296C103.797 34.1787 104.026 34.016 104.207 33.808C104.394 33.5947 104.533 33.344 104.623 33.056C104.719 32.7627 104.767 32.4453 104.767 32.104C104.767 31.4747 104.583 30.984 104.215 30.632C103.853 30.2747 103.314 30.096 102.599 30.096C102.05 30.096 101.487 30.1973 100.911 30.4L99.6794 30.048L100.639 24.432H106.351V25.272C106.351 25.5547 106.263 25.784 106.087 25.96C105.911 26.136 105.613 26.224 105.191 26.224H102.015L101.607 28.632ZM111.081 29.28H111.585C111.787 29.28 111.955 29.2533 112.089 29.2C112.222 29.1413 112.337 29.0507 112.433 28.928L115.625 24.888C115.758 24.7173 115.897 24.6 116.041 24.536C116.19 24.4667 116.377 24.432 116.601 24.432H118.457L114.561 29.24C114.331 29.5333 114.094 29.7413 113.849 29.864C114.025 29.928 114.182 30.0187 114.321 30.136C114.465 30.248 114.601 30.3973 114.729 30.584L118.745 36H116.849C116.593 36 116.401 35.9653 116.273 35.896C116.15 35.8213 116.046 35.7147 115.961 35.576L112.689 31.304C112.587 31.16 112.47 31.0587 112.337 31C112.203 30.9413 112.011 30.912 111.761 30.912H111.081V36H108.929V24.432H111.081V29.28ZM83.992 50.568V52H77.416V40.512H79.12V50.568H83.992ZM86.9624 43.872V52H85.4024V43.872H86.9624ZM87.2584 41.36C87.2584 41.504 87.229 41.6427 87.1704 41.776C87.1117 41.904 87.0317 42.0187 86.9304 42.12C86.8344 42.216 86.7197 42.2933 86.5864 42.352C86.453 42.4053 86.3144 42.432 86.1704 42.432C86.0264 42.432 85.8904 42.4053 85.7624 42.352C85.6344 42.2933 85.5197 42.216 85.4184 42.12C85.3224 42.0187 85.245 41.904 85.1864 41.776C85.133 41.6427 85.1064 41.504 85.1064 41.36C85.1064 41.2107 85.133 41.072 85.1864 40.944C85.245 40.8107 85.3224 40.696 85.4184 40.6C85.5197 40.4987 85.6344 40.4213 85.7624 40.368C85.8904 40.3093 86.0264 40.28 86.1704 40.28C86.3144 40.28 86.453 40.3093 86.5864 40.368C86.7197 40.4213 86.8344 40.4987 86.9304 40.6C87.0317 40.696 87.1117 40.8107 87.1704 40.944C87.229 41.072 87.2584 41.2107 87.2584 41.36ZM90.781 40.192V47.096H91.149C91.261 47.096 91.3543 47.08 91.429 47.048C91.5037 47.016 91.581 46.952 91.661 46.856L94.093 44.176C94.1677 44.0747 94.2503 44 94.341 43.952C94.4317 43.8987 94.5463 43.872 94.685 43.872H96.109L93.237 47.016C93.0823 47.2133 92.917 47.3653 92.741 47.472C92.8423 47.5413 92.9303 47.6213 93.005 47.712C93.085 47.8027 93.1623 47.9013 93.237 48.008L96.293 52H94.893C94.765 52 94.653 51.9787 94.557 51.936C94.4663 51.8933 94.3837 51.816 94.309 51.704L91.797 48.44C91.717 48.3173 91.637 48.24 91.557 48.208C91.477 48.1707 91.357 48.152 91.197 48.152H90.781V52H89.221V40.192H90.781ZM102.386 47.032C102.386 46.7227 102.341 46.4373 102.25 46.176C102.165 45.9147 102.037 45.688 101.866 45.496C101.696 45.304 101.488 45.1547 101.242 45.048C100.997 44.9413 100.714 44.888 100.394 44.888C99.7383 44.888 99.2209 45.0773 98.8423 45.456C98.4689 45.8347 98.2316 46.36 98.1303 47.032H102.386ZM103.674 50.84C103.482 51.064 103.261 51.2587 103.01 51.424C102.76 51.584 102.493 51.7147 102.21 51.816C101.928 51.9173 101.634 51.992 101.33 52.04C101.032 52.088 100.736 52.112 100.442 52.112C99.8823 52.112 99.3623 52.0187 98.8823 51.832C98.4076 51.64 97.9943 51.3627 97.6423 51C97.2956 50.632 97.0236 50.1787 96.8263 49.64C96.6343 49.096 96.5383 48.472 96.5383 47.768C96.5383 47.2027 96.6263 46.6773 96.8023 46.192C96.9783 45.7013 97.2289 45.2747 97.5543 44.912C97.8849 44.5493 98.2876 44.264 98.7623 44.056C99.2369 43.848 99.7703 43.744 100.362 43.744C100.858 43.744 101.314 43.8267 101.73 43.992C102.152 44.152 102.514 44.3867 102.818 44.696C103.122 45.0053 103.36 45.3867 103.53 45.84C103.706 46.2933 103.794 46.8107 103.794 47.392C103.794 47.632 103.768 47.7947 103.714 47.88C103.661 47.96 103.562 48 103.418 48H98.0903C98.1063 48.4853 98.1756 48.9093 98.2983 49.272C98.4209 49.6293 98.5889 49.928 98.8023 50.168C99.0209 50.408 99.2796 50.5867 99.5783 50.704C99.8769 50.8213 100.21 50.88 100.578 50.88C100.925 50.88 101.224 50.84 101.474 50.76C101.73 50.68 101.949 50.5947 102.13 50.504C102.317 50.408 102.472 50.32 102.594 50.24C102.722 50.16 102.834 50.12 102.93 50.12C103.058 50.12 103.157 50.168 103.226 50.264L103.674 50.84ZM110.263 45.272C110.22 45.3413 110.175 45.392 110.127 45.424C110.079 45.4507 110.018 45.464 109.943 45.464C109.858 45.464 109.762 45.4347 109.655 45.376C109.554 45.3173 109.428 45.2533 109.279 45.184C109.135 45.1147 108.964 45.0507 108.767 44.992C108.57 44.9333 108.335 44.904 108.063 44.904C107.839 44.904 107.634 44.9333 107.447 44.992C107.266 45.0453 107.111 45.1227 106.983 45.224C106.855 45.32 106.756 45.4373 106.687 45.576C106.618 45.7093 106.583 45.8533 106.583 46.008C106.583 46.2107 106.642 46.3787 106.759 46.512C106.882 46.6453 107.039 46.76 107.231 46.856C107.428 46.952 107.65 47.04 107.895 47.12C108.146 47.1947 108.399 47.2747 108.655 47.36C108.916 47.4453 109.17 47.544 109.415 47.656C109.666 47.7627 109.887 47.8987 110.079 48.064C110.276 48.224 110.434 48.4187 110.551 48.648C110.674 48.8773 110.735 49.1573 110.735 49.488C110.735 49.8667 110.666 50.2187 110.527 50.544C110.394 50.864 110.194 51.1413 109.927 51.376C109.666 51.6107 109.34 51.7947 108.951 51.928C108.562 52.0613 108.116 52.128 107.615 52.128C107.055 52.128 106.538 52.0347 106.063 51.848C105.588 51.6613 105.191 51.424 104.871 51.136L105.239 50.536C105.282 50.4613 105.335 50.4053 105.399 50.368C105.463 50.3253 105.548 50.304 105.655 50.304C105.756 50.304 105.86 50.3413 105.967 50.416C106.074 50.4907 106.202 50.5733 106.351 50.664C106.5 50.7493 106.682 50.8293 106.895 50.904C107.108 50.9733 107.375 51.008 107.695 51.008C107.962 51.008 108.194 50.976 108.391 50.912C108.588 50.8427 108.751 50.752 108.879 50.64C109.012 50.5227 109.111 50.3893 109.175 50.24C109.239 50.0907 109.271 49.9333 109.271 49.768C109.271 49.5547 109.21 49.3787 109.087 49.24C108.97 49.096 108.812 48.9733 108.615 48.872C108.423 48.7707 108.202 48.6827 107.951 48.608C107.7 48.5333 107.444 48.4533 107.183 48.368C106.922 48.2827 106.666 48.184 106.415 48.072C106.164 47.96 105.94 47.8187 105.743 47.648C105.551 47.4773 105.394 47.2693 105.271 47.024C105.154 46.7787 105.095 46.48 105.095 46.128C105.095 45.8133 105.159 45.512 105.287 45.224C105.42 44.936 105.61 44.6827 105.855 44.464C106.106 44.2453 106.412 44.072 106.775 43.944C107.143 43.8107 107.562 43.744 108.031 43.744C108.57 43.744 109.055 43.8293 109.487 44C109.924 44.1707 110.298 44.4053 110.607 44.704L110.263 45.272Z" fill="white"/>
<path d="M37.6667 31.6667V28.4667C37.6667 27.08 37.9867 26.3333 40.2267 26.3333H43V21H38.7333C33.4 21 31.2667 24.52 31.2667 28.4667V31.6667H27V37H31.2667V53H37.6667V37H42.36L43 31.6667H37.6667Z" fill="#FFFCFC"/>
</svg>
