<svg width="182" height="71" viewBox="0 0 182 71" fill="none" xmlns="http://www.w3.org/2000/svg">
<rect width="182" height="71" rx="8" fill="#FE2C3C"/>
<path d="M71.28 33.52V35H64.88V33.52H67.224V26.776C67.224 26.5093 67.232 26.2347 67.248 25.952L65.584 27.344C65.488 27.4187 65.392 27.4667 65.296 27.488C65.2053 27.504 65.1173 27.504 65.032 27.488C64.952 27.472 64.88 27.4453 64.816 27.408C64.752 27.3653 64.704 27.32 64.672 27.272L64.048 26.416L67.576 23.416H69.2V33.52H71.28ZM72.9693 33.912C72.9693 33.7467 72.9986 33.5893 73.0573 33.44C73.1213 33.2907 73.2066 33.1627 73.3133 33.056C73.4199 32.9493 73.5479 32.864 73.6973 32.8C73.8466 32.736 74.0066 32.704 74.1773 32.704C74.3479 32.704 74.5053 32.736 74.6493 32.8C74.7986 32.864 74.9266 32.9493 75.0333 33.056C75.1453 33.1627 75.2333 33.2907 75.2973 33.44C75.3613 33.5893 75.3933 33.7467 75.3933 33.912C75.3933 34.0827 75.3613 34.2427 75.2973 34.392C75.2333 34.536 75.1453 34.6613 75.0333 34.768C74.9266 34.8747 74.7986 34.9573 74.6493 35.016C74.5053 35.08 74.3479 35.112 74.1773 35.112C74.0066 35.112 73.8466 35.08 73.6973 35.016C73.5479 34.9573 73.4199 34.8747 73.3133 34.768C73.2066 34.6613 73.1213 34.536 73.0573 34.392C72.9986 34.2427 72.9693 34.0827 72.9693 33.912ZM79.3261 27.632C79.5821 27.5787 79.8275 27.5413 80.0621 27.52C80.2968 27.4933 80.5235 27.48 80.7421 27.48C81.3501 27.48 81.8861 27.5707 82.3501 27.752C82.8141 27.9333 83.2035 28.184 83.5181 28.504C83.8328 28.824 84.0701 29.2 84.2301 29.632C84.3901 30.0587 84.4701 30.52 84.4701 31.016C84.4701 31.6293 84.3608 32.1893 84.1421 32.696C83.9288 33.2027 83.6301 33.6373 83.2461 34C82.8621 34.3573 82.4061 34.6347 81.8781 34.832C81.3555 35.0293 80.7848 35.128 80.1661 35.128C79.8035 35.128 79.4595 35.0907 79.1341 35.016C78.8088 34.9413 78.5021 34.8427 78.2141 34.72C77.9315 34.592 77.6675 34.448 77.4221 34.288C77.1821 34.1227 76.9661 33.9493 76.7741 33.768L77.3821 32.928C77.5101 32.7467 77.6781 32.656 77.8861 32.656C78.0195 32.656 78.1555 32.6987 78.2941 32.784C78.4328 32.8693 78.5901 32.9627 78.7661 33.064C78.9475 33.1653 79.1581 33.2587 79.3981 33.344C79.6435 33.4293 79.9368 33.472 80.2781 33.472C80.6408 33.472 80.9608 33.4133 81.2381 33.296C81.5155 33.1787 81.7448 33.016 81.9261 32.808C82.1128 32.5947 82.2515 32.344 82.3421 32.056C82.4381 31.7627 82.4861 31.4453 82.4861 31.104C82.4861 30.4747 82.3021 29.984 81.9341 29.632C81.5715 29.2747 81.0328 29.096 80.3181 29.096C79.7688 29.096 79.2061 29.1973 78.6301 29.4L77.3981 29.048L78.3581 23.432H84.0701V24.272C84.0701 24.5547 83.9821 24.784 83.8061 24.96C83.6301 25.136 83.3315 25.224 82.9101 25.224H79.7341L79.3261 27.632ZM103.082 23.432V35H101.186V27.528C101.186 27.2293 101.202 26.9067 101.234 26.56L97.738 33.128C97.5727 33.4427 97.3193 33.6 96.978 33.6H96.674C96.3327 33.6 96.0793 33.4427 95.914 33.128L92.378 26.536C92.394 26.712 92.4073 26.8853 92.418 27.056C92.4287 27.2267 92.434 27.384 92.434 27.528V35H90.538V23.432H92.162C92.258 23.432 92.3407 23.4347 92.41 23.44C92.4793 23.4453 92.5407 23.4587 92.594 23.48C92.6527 23.5013 92.7033 23.536 92.746 23.584C92.794 23.632 92.8393 23.696 92.882 23.776L96.346 30.2C96.4367 30.3707 96.5193 30.5467 96.594 30.728C96.674 30.9093 96.7513 31.096 96.826 31.288C96.9007 31.0907 96.978 30.9013 97.058 30.72C97.138 30.5333 97.2233 30.3547 97.314 30.184L100.73 23.776C100.773 23.696 100.818 23.632 100.866 23.584C100.914 23.536 100.965 23.5013 101.018 23.48C101.077 23.4587 101.141 23.4453 101.21 23.44C101.279 23.4347 101.362 23.432 101.458 23.432H103.082ZM70.392 41.448C70.3333 41.544 70.272 41.616 70.208 41.664C70.144 41.7067 70.064 41.728 69.968 41.728C69.8667 41.728 69.752 41.6853 69.624 41.6C69.5013 41.5147 69.3467 41.4213 69.16 41.32C68.9787 41.2133 68.7627 41.1173 68.512 41.032C68.2613 40.9413 67.9627 40.896 67.616 40.896C67.296 40.896 67.0133 40.936 66.768 41.016C66.528 41.096 66.3253 41.208 66.16 41.352C65.9947 41.496 65.8693 41.6667 65.784 41.864C65.704 42.056 65.664 42.2667 65.664 42.496C65.664 42.7893 65.7413 43.0347 65.896 43.232C66.0507 43.424 66.2533 43.5893 66.504 43.728C66.76 43.8667 67.0507 43.9893 67.376 44.096C67.7013 44.1973 68.032 44.3067 68.368 44.424C68.7093 44.5413 69.0427 44.6747 69.368 44.824C69.6933 44.9733 69.9813 45.1627 70.232 45.392C70.488 45.6213 70.6933 45.9013 70.848 46.232C71.0027 46.5627 71.08 46.9653 71.08 47.44C71.08 47.952 70.992 48.432 70.816 48.88C70.64 49.328 70.384 49.72 70.048 50.056C69.7173 50.3867 69.3067 50.648 68.816 50.84C68.3307 51.032 67.776 51.128 67.152 51.128C66.784 51.128 66.424 51.0907 66.072 51.016C65.7253 50.9467 65.392 50.848 65.072 50.72C64.7573 50.5867 64.4613 50.4267 64.184 50.24C63.9067 50.0533 63.6587 49.8453 63.44 49.616L63.984 48.72C64.032 48.6453 64.0933 48.5867 64.168 48.544C64.2427 48.5013 64.3253 48.48 64.416 48.48C64.5387 48.48 64.6747 48.5387 64.824 48.656C64.9733 48.768 65.152 48.8933 65.36 49.032C65.5733 49.1653 65.8293 49.2907 66.128 49.408C66.4267 49.52 66.784 49.576 67.2 49.576C67.8773 49.576 68.4 49.4107 68.768 49.08C69.1413 48.7493 69.328 48.2933 69.328 47.712C69.328 47.3867 69.2507 47.1227 69.096 46.92C68.9413 46.712 68.736 46.5387 68.48 46.4C68.2293 46.2613 67.9413 46.144 67.616 46.048C67.2907 45.952 66.96 45.8507 66.624 45.744C66.288 45.632 65.9573 45.504 65.632 45.36C65.3067 45.2107 65.016 45.0187 64.76 44.784C64.5093 44.544 64.3067 44.2507 64.152 43.904C63.9973 43.552 63.92 43.1147 63.92 42.592C63.92 42.176 64 41.7733 64.16 41.384C64.3253 40.9947 64.5627 40.6507 64.872 40.352C65.1867 40.048 65.5733 39.8053 66.032 39.624C66.4907 39.4427 67.0133 39.352 67.6 39.352C68.2613 39.352 68.8667 39.456 69.416 39.664C69.9707 39.872 70.448 40.168 70.848 40.552L70.392 41.448ZM79.5061 42.84V51H78.4661C78.2368 51 78.0901 50.8907 78.0261 50.672L77.8981 49.912C77.7275 50.0933 77.5461 50.2587 77.3541 50.408C77.1675 50.5573 76.9675 50.6853 76.7541 50.792C76.5408 50.8987 76.3115 50.9813 76.0661 51.04C75.8261 51.0987 75.5675 51.128 75.2901 51.128C74.8421 51.128 74.4475 51.0533 74.1061 50.904C73.7648 50.7547 73.4768 50.544 73.2421 50.272C73.0128 50 72.8395 49.6747 72.7221 49.296C72.6048 48.912 72.5461 48.4907 72.5461 48.032V42.84H74.2661V48.032C74.2661 48.5813 74.3915 49.008 74.6421 49.312C74.8981 49.616 75.2848 49.768 75.8021 49.768C76.1808 49.768 76.5328 49.6827 76.8581 49.512C77.1888 49.336 77.4981 49.096 77.7861 48.792V42.84H79.5061ZM83.3149 48.952C83.5549 49.2613 83.8162 49.48 84.0989 49.608C84.3869 49.7307 84.6989 49.792 85.0349 49.792C85.7122 49.792 86.2402 49.5467 86.6189 49.056C86.9975 48.5653 87.1869 47.8053 87.1869 46.776C87.1869 45.8373 87.0215 45.152 86.6909 44.72C86.3655 44.288 85.8989 44.072 85.2909 44.072C84.8695 44.072 84.5015 44.168 84.1869 44.36C83.8775 44.5467 83.5869 44.816 83.3149 45.168V48.952ZM83.3149 43.92C83.6509 43.552 84.0269 43.2587 84.4429 43.04C84.8589 42.8213 85.3335 42.712 85.8669 42.712C86.3415 42.712 86.7682 42.8053 87.1469 42.992C87.5309 43.1733 87.8562 43.4373 88.1229 43.784C88.3895 44.1307 88.5949 44.552 88.7389 45.048C88.8829 45.5387 88.9549 46.0933 88.9549 46.712C88.9549 47.3733 88.8722 47.976 88.7069 48.52C88.5469 49.0587 88.3149 49.5227 88.0109 49.912C87.7069 50.296 87.3389 50.5947 86.9069 50.808C86.4749 51.016 85.9922 51.12 85.4589 51.12C85.1975 51.12 84.9602 51.0933 84.7469 51.04C84.5335 50.992 84.3362 50.92 84.1549 50.824C83.9735 50.728 83.8055 50.6133 83.6509 50.48C83.5015 50.3467 83.3575 50.1947 83.2189 50.024L83.1469 50.656C83.1202 50.7787 83.0722 50.8667 83.0029 50.92C82.9335 50.9733 82.8375 51 82.7149 51H81.5949V39.16H83.3149V43.92ZM95.4981 44.32C95.4555 44.3947 95.4075 44.448 95.3541 44.48C95.3008 44.512 95.2341 44.528 95.1541 44.528C95.0635 44.528 94.9648 44.5013 94.8581 44.448C94.7515 44.3893 94.6261 44.3253 94.4821 44.256C94.3381 44.1867 94.1675 44.1253 93.9701 44.072C93.7781 44.0133 93.5515 43.984 93.2901 43.984C93.0768 43.984 92.8821 44.0107 92.7061 44.064C92.5355 44.112 92.3888 44.184 92.2661 44.28C92.1488 44.3707 92.0581 44.48 91.9941 44.608C91.9301 44.7307 91.8981 44.864 91.8981 45.008C91.8981 45.2 91.9568 45.36 92.0741 45.488C92.1915 45.616 92.3461 45.728 92.5381 45.824C92.7301 45.9147 92.9488 45.9973 93.1941 46.072C93.4395 46.1467 93.6901 46.2267 93.9461 46.312C94.2021 46.3973 94.4528 46.496 94.6981 46.608C94.9435 46.72 95.1621 46.8587 95.3541 47.024C95.5461 47.184 95.7008 47.3813 95.8181 47.616C95.9355 47.8453 95.9941 48.1253 95.9941 48.456C95.9941 48.84 95.9248 49.1947 95.7861 49.52C95.6475 49.8453 95.4448 50.128 95.1781 50.368C94.9115 50.608 94.5781 50.7947 94.1781 50.928C93.7835 51.0613 93.3301 51.128 92.8181 51.128C92.5355 51.128 92.2608 51.1013 91.9941 51.048C91.7328 51 91.4821 50.9333 91.2421 50.848C91.0075 50.7573 90.7861 50.6507 90.5781 50.528C90.3755 50.4053 90.1941 50.272 90.0341 50.128L90.4341 49.472C90.4821 49.392 90.5408 49.3307 90.6101 49.288C90.6848 49.24 90.7755 49.216 90.8821 49.216C90.9941 49.216 91.1035 49.2533 91.2101 49.328C91.3221 49.3973 91.4501 49.4747 91.5941 49.56C91.7435 49.6453 91.9221 49.7253 92.1301 49.8C92.3381 49.8693 92.5968 49.904 92.9061 49.904C93.1621 49.904 93.3835 49.8747 93.5701 49.816C93.7568 49.752 93.9115 49.6667 94.0341 49.56C94.1568 49.4533 94.2475 49.3333 94.3061 49.2C94.3648 49.0613 94.3941 48.9147 94.3941 48.76C94.3941 48.552 94.3355 48.3813 94.2181 48.248C94.1008 48.1147 93.9435 48 93.7461 47.904C93.5541 47.808 93.3328 47.7227 93.0821 47.648C92.8368 47.5733 92.5861 47.4933 92.3301 47.408C92.0741 47.3227 91.8208 47.224 91.5701 47.112C91.3248 47 91.1035 46.8587 90.9061 46.688C90.7141 46.512 90.5595 46.3013 90.4421 46.056C90.3248 45.8053 90.2661 45.5013 90.2661 45.144C90.2661 44.8187 90.3301 44.5093 90.4581 44.216C90.5915 43.9227 90.7835 43.664 91.0341 43.44C91.2901 43.216 91.6021 43.04 91.9701 42.912C92.3435 42.7787 92.7728 42.712 93.2581 42.712C93.8075 42.712 94.3061 42.8 94.7541 42.976C95.2021 43.152 95.5781 43.392 95.8821 43.696L95.4981 44.32ZM103.379 44.44C103.325 44.5093 103.275 44.5627 103.227 44.6C103.179 44.6373 103.109 44.656 103.019 44.656C102.928 44.656 102.832 44.624 102.731 44.56C102.635 44.496 102.517 44.4267 102.379 44.352C102.245 44.272 102.083 44.2 101.891 44.136C101.699 44.072 101.459 44.04 101.171 44.04C100.797 44.04 100.469 44.1067 100.187 44.24C99.9092 44.3733 99.6745 44.5653 99.4825 44.816C99.2958 45.0613 99.1545 45.3627 99.0585 45.72C98.9678 46.072 98.9225 46.4693 98.9225 46.912C98.9225 47.3707 98.9732 47.7787 99.0745 48.136C99.1758 48.4933 99.3198 48.7947 99.5065 49.04C99.6985 49.2853 99.9278 49.472 100.195 49.6C100.467 49.728 100.771 49.792 101.107 49.792C101.437 49.792 101.707 49.752 101.915 49.672C102.123 49.592 102.296 49.504 102.435 49.408C102.573 49.312 102.691 49.224 102.787 49.144C102.888 49.064 102.995 49.024 103.107 49.024C103.245 49.024 103.352 49.0773 103.427 49.184L103.915 49.816C103.717 50.056 103.499 50.2587 103.259 50.424C103.019 50.5893 102.765 50.7253 102.499 50.832C102.232 50.9333 101.955 51.0053 101.667 51.048C101.379 51.096 101.088 51.12 100.795 51.12C100.288 51.12 99.8132 51.0267 99.3705 50.84C98.9332 50.648 98.5492 50.3733 98.2185 50.016C97.8932 49.6533 97.6345 49.2133 97.4425 48.696C97.2558 48.1733 97.1625 47.5787 97.1625 46.912C97.1625 46.3093 97.2478 45.752 97.4185 45.24C97.5892 44.7227 97.8372 44.2773 98.1625 43.904C98.4932 43.5307 98.9012 43.24 99.3865 43.032C99.8718 42.8187 100.432 42.712 101.067 42.712C101.659 42.712 102.179 42.808 102.627 43C103.08 43.192 103.483 43.464 103.835 43.816L103.379 44.44ZM106.922 44.352C107.178 43.8347 107.487 43.4293 107.85 43.136C108.213 42.8373 108.647 42.688 109.154 42.688C109.33 42.688 109.495 42.7093 109.65 42.752C109.805 42.7893 109.943 42.848 110.066 42.928L109.946 44.224C109.925 44.3147 109.89 44.3787 109.842 44.416C109.799 44.448 109.741 44.464 109.666 44.464C109.586 44.464 109.471 44.4507 109.322 44.424C109.173 44.392 109.015 44.376 108.85 44.376C108.61 44.376 108.397 44.4107 108.21 44.48C108.029 44.5493 107.863 44.6507 107.714 44.784C107.57 44.9173 107.442 45.08 107.33 45.272C107.218 45.464 107.114 45.6827 107.018 45.928V51H105.298V42.84H106.298C106.479 42.84 106.605 42.8747 106.674 42.944C106.743 43.008 106.791 43.1227 106.818 43.288L106.922 44.352ZM112.996 42.84V51H111.276V42.84H112.996ZM113.284 40.376C113.284 40.5307 113.252 40.6773 113.188 40.816C113.13 40.9547 113.047 41.0773 112.94 41.184C112.834 41.2853 112.708 41.368 112.564 41.432C112.426 41.4907 112.276 41.52 112.116 41.52C111.962 41.52 111.815 41.4907 111.676 41.432C111.543 41.368 111.426 41.2853 111.324 41.184C111.223 41.0773 111.14 40.9547 111.076 40.816C111.018 40.6773 110.988 40.5307 110.988 40.376C110.988 40.216 111.018 40.0667 111.076 39.928C111.14 39.7893 111.223 39.6693 111.324 39.568C111.426 39.4613 111.543 39.3787 111.676 39.32C111.815 39.256 111.962 39.224 112.116 39.224C112.276 39.224 112.426 39.256 112.564 39.32C112.708 39.3787 112.834 39.4613 112.94 39.568C113.047 39.6693 113.13 39.7893 113.188 39.928C113.252 40.0667 113.284 40.216 113.284 40.376ZM116.877 48.952C117.117 49.2613 117.379 49.48 117.661 49.608C117.949 49.7307 118.261 49.792 118.597 49.792C119.275 49.792 119.803 49.5467 120.181 49.056C120.56 48.5653 120.749 47.8053 120.749 46.776C120.749 45.8373 120.584 45.152 120.253 44.72C119.928 44.288 119.461 44.072 118.853 44.072C118.432 44.072 118.064 44.168 117.749 44.36C117.44 44.5467 117.149 44.816 116.877 45.168V48.952ZM116.877 43.92C117.213 43.552 117.589 43.2587 118.005 43.04C118.421 42.8213 118.896 42.712 119.429 42.712C119.904 42.712 120.331 42.8053 120.709 42.992C121.093 43.1733 121.419 43.4373 121.685 43.784C121.952 44.1307 122.157 44.552 122.301 45.048C122.445 45.5387 122.517 46.0933 122.517 46.712C122.517 47.3733 122.435 47.976 122.269 48.52C122.109 49.0587 121.877 49.5227 121.573 49.912C121.269 50.296 120.901 50.5947 120.469 50.808C120.037 51.016 119.555 51.12 119.021 51.12C118.76 51.12 118.523 51.0933 118.309 51.04C118.096 50.992 117.899 50.92 117.717 50.824C117.536 50.728 117.368 50.6133 117.213 50.48C117.064 50.3467 116.92 50.1947 116.781 50.024L116.709 50.656C116.683 50.7787 116.635 50.8667 116.565 50.92C116.496 50.9733 116.4 51 116.277 51H115.157V39.16H116.877V43.92ZM129.541 46C129.541 45.712 129.498 45.4453 129.413 45.2C129.333 44.9493 129.213 44.7333 129.053 44.552C128.893 44.3653 128.693 44.2213 128.453 44.12C128.218 44.0133 127.946 43.96 127.637 43.96C127.013 43.96 126.522 44.1387 126.165 44.496C125.807 44.8533 125.581 45.3547 125.485 46H129.541ZM125.437 47.056C125.458 47.52 125.53 47.9227 125.653 48.264C125.775 48.6 125.938 48.88 126.141 49.104C126.349 49.328 126.594 49.496 126.877 49.608C127.165 49.7147 127.485 49.768 127.837 49.768C128.173 49.768 128.463 49.7307 128.709 49.656C128.954 49.576 129.167 49.4907 129.349 49.4C129.53 49.304 129.685 49.2187 129.813 49.144C129.941 49.064 130.058 49.024 130.165 49.024C130.303 49.024 130.41 49.0773 130.485 49.184L130.973 49.816C130.77 50.056 130.541 50.2587 130.285 50.424C130.029 50.5893 129.757 50.7253 129.469 50.832C129.181 50.9333 128.885 51.0053 128.581 51.048C128.277 51.096 127.981 51.12 127.693 51.12C127.127 51.12 126.602 51.0267 126.117 50.84C125.637 50.648 125.218 50.368 124.861 50C124.509 49.632 124.231 49.176 124.029 48.632C123.831 48.088 123.733 47.4613 123.733 46.752C123.733 46.1867 123.821 45.6587 123.997 45.168C124.178 44.6773 124.434 44.2507 124.765 43.888C125.101 43.5253 125.506 43.24 125.981 43.032C126.461 42.8187 127.002 42.712 127.605 42.712C128.106 42.712 128.57 42.7947 128.997 42.96C129.423 43.12 129.791 43.3573 130.101 43.672C130.41 43.9867 130.65 44.3733 130.821 44.832C130.997 45.2853 131.085 45.8027 131.085 46.384C131.085 46.6507 131.055 46.8293 130.997 46.92C130.938 47.0107 130.831 47.056 130.677 47.056H125.437ZM134.313 44.352C134.569 43.8347 134.878 43.4293 135.241 43.136C135.603 42.8373 136.038 42.688 136.545 42.688C136.721 42.688 136.886 42.7093 137.041 42.752C137.195 42.7893 137.334 42.848 137.457 42.928L137.337 44.224C137.315 44.3147 137.281 44.3787 137.233 44.416C137.19 44.448 137.131 44.464 137.057 44.464C136.977 44.464 136.862 44.4507 136.713 44.424C136.563 44.392 136.406 44.376 136.241 44.376C136.001 44.376 135.787 44.4107 135.601 44.48C135.419 44.5493 135.254 44.6507 135.105 44.784C134.961 44.9173 134.833 45.08 134.721 45.272C134.609 45.464 134.505 45.6827 134.409 45.928V51H132.689V42.84H133.689C133.87 42.84 133.995 42.8747 134.065 42.944C134.134 43.008 134.182 43.1227 134.209 43.288L134.313 44.352ZM143.42 44.32C143.377 44.3947 143.329 44.448 143.276 44.48C143.223 44.512 143.156 44.528 143.076 44.528C142.985 44.528 142.887 44.5013 142.78 44.448C142.673 44.3893 142.548 44.3253 142.404 44.256C142.26 44.1867 142.089 44.1253 141.892 44.072C141.7 44.0133 141.473 43.984 141.212 43.984C140.999 43.984 140.804 44.0107 140.628 44.064C140.457 44.112 140.311 44.184 140.188 44.28C140.071 44.3707 139.98 44.48 139.916 44.608C139.852 44.7307 139.82 44.864 139.82 45.008C139.82 45.2 139.879 45.36 139.996 45.488C140.113 45.616 140.268 45.728 140.46 45.824C140.652 45.9147 140.871 45.9973 141.116 46.072C141.361 46.1467 141.612 46.2267 141.868 46.312C142.124 46.3973 142.375 46.496 142.62 46.608C142.865 46.72 143.084 46.8587 143.276 47.024C143.468 47.184 143.623 47.3813 143.74 47.616C143.857 47.8453 143.916 48.1253 143.916 48.456C143.916 48.84 143.847 49.1947 143.708 49.52C143.569 49.8453 143.367 50.128 143.1 50.368C142.833 50.608 142.5 50.7947 142.1 50.928C141.705 51.0613 141.252 51.128 140.74 51.128C140.457 51.128 140.183 51.1013 139.916 51.048C139.655 51 139.404 50.9333 139.164 50.848C138.929 50.7573 138.708 50.6507 138.5 50.528C138.297 50.4053 138.116 50.272 137.956 50.128L138.356 49.472C138.404 49.392 138.463 49.3307 138.532 49.288C138.607 49.24 138.697 49.216 138.804 49.216C138.916 49.216 139.025 49.2533 139.132 49.328C139.244 49.3973 139.372 49.4747 139.516 49.56C139.665 49.6453 139.844 49.7253 140.052 49.8C140.26 49.8693 140.519 49.904 140.828 49.904C141.084 49.904 141.305 49.8747 141.492 49.816C141.679 49.752 141.833 49.6667 141.956 49.56C142.079 49.4533 142.169 49.3333 142.228 49.2C142.287 49.0613 142.316 48.9147 142.316 48.76C142.316 48.552 142.257 48.3813 142.14 48.248C142.023 48.1147 141.865 48 141.668 47.904C141.476 47.808 141.255 47.7227 141.004 47.648C140.759 47.5733 140.508 47.4933 140.252 47.408C139.996 47.3227 139.743 47.224 139.492 47.112C139.247 47 139.025 46.8587 138.828 46.688C138.636 46.512 138.481 46.3013 138.364 46.056C138.247 45.8053 138.188 45.5013 138.188 45.144C138.188 44.8187 138.252 44.5093 138.38 44.216C138.513 43.9227 138.705 43.664 138.956 43.44C139.212 43.216 139.524 43.04 139.892 42.912C140.265 42.7787 140.695 42.712 141.18 42.712C141.729 42.712 142.228 42.8 142.676 42.976C143.124 43.152 143.5 43.392 143.804 43.696L143.42 44.32Z" fill="white"/>
<path d="M46.7 29.4125C46.7 29.4125 46.4 27.3125 45.5 26.4125C44.4 25.2125 43.1 25.2125 42.5 25.1125C38.3 24.8125 32 24.8125 32 24.8125C32 24.8125 25.7 24.8125 21.5 25.1125C20.9 25.2125 19.6 25.2125 18.5 26.4125C17.6 27.3125 17.3 29.4125 17.3 29.4125C17.3 29.4125 17 31.8125 17 34.2125V36.4125C17 38.8125 17.3 41.3125 17.3 41.3125C17.3 41.3125 17.6 43.4125 18.5 44.3125C19.6 45.5125 21.1 45.5125 21.8 45.6125C24.2 45.7125 32 45.8125 32 45.8125C32 45.8125 38.3 45.8125 42.5 45.5125C43.1 45.4125 44.4 45.4125 45.5 44.2125C46.4 43.3125 46.7 41.2125 46.7 41.2125C46.7 41.2125 47 38.8125 47 36.4125V34.2125C47 31.8125 46.7 29.4125 46.7 29.4125ZM28.9 39.2125V30.8125L37 35.0125L28.9 39.2125Z" fill="white"/>
</svg>
